<?xml version="1.0" standalone="no"?>
<!DOCTYPE svg PUBLIC "-//W3C//DTD SVG 20010904//EN"
 "http://www.w3.org/TR/2001/REC-SVG-20010904/DTD/svg10.dtd">
<svg version="1.0" xmlns="http://www.w3.org/2000/svg"
 width="512.000000pt" height="512.000000pt" viewBox="0 0 512.000000 512.000000"
 preserveAspectRatio="xMidYMid meet">
<metadata>
Created by potrace 1.11, written by Peter Selinger 2001-2013
</metadata>
<g transform="translate(0.000000,512.000000) scale(0.100000,-0.100000)"
fill="#000000" stroke="none">
<path d="M2218 2943 c-9 -10 -52 -87 -98 -170 l-82 -153 -257 0 -257 0 -16 71
c-27 115 -91 195 -186 236 -42 18 -298 30 -320 15 -7 -5 -21 -73 -34 -165
l-22 -157 -308 0 -308 0 0 -40 0 -40 300 0 300 0 0 -22 c0 -13 -9 -81 -20
-153 -11 -71 -20 -138 -20 -148 0 -17 11 -18 168 -15 162 3 169 4 227 32 103
51 180 145 215 264 l13 42 239 0 239 0 -12 -22 c-6 -13 -45 -84 -85 -159 -41
-75 -74 -141 -74 -148 0 -8 14 -11 43 -9 l42 3 45 88 45 87 164 -2 165 -3 21
-85 21 -85 42 -3 c35 -3 42 0 42 15 0 15 -55 236 -76 306 -5 16 14 17 300 17
168 0 306 -2 306 -5 0 -3 -45 -72 -100 -152 -55 -80 -100 -155 -100 -165 0
-17 11 -18 217 -16 l217 3 6 25 c13 49 8 50 -157 50 l-154 0 88 130 88 129
313 1 c291 0 312 -1 312 -17 0 -10 -9 -76 -20 -148 -11 -71 -20 -140 -20 -153
l0 -22 208 2 207 3 3 33 3 32 -162 0 -162 0 6 58 c4 31 11 92 18 135 l11 77
504 0 504 0 0 40 0 40 -498 0 -499 0 13 93 c8 50 16 107 19 125 l6 32 164 0
163 0 7 31 c5 22 3 34 -6 40 -18 11 -380 11 -398 0 -8 -6 -21 -63 -35 -165
l-21 -156 -292 0 -292 0 100 147 c54 81 99 152 99 159 0 6 -7 15 -16 18 -24 9
-387 7 -402 -3 -8 -4 -14 -24 -15 -42 l-2 -34 148 -5 148 -5 -78 -115 -78
-115 -349 0 -349 0 -38 145 c-52 198 -58 210 -91 173z m-977 -83 c92 -18 162
-94 175 -194 l7 -46 -195 0 -195 0 13 93 c25 174 16 157 83 157 32 0 82 -5
112 -10z m999 -155 c7 -33 15 -65 17 -72 4 -10 -11 -13 -61 -13 -36 0 -66 3
-66 6 0 18 86 161 91 151 4 -7 12 -39 19 -72z m-830 -182 c-1 -64 -96 -182
-175 -219 -42 -20 -66 -24 -147 -24 -113 0 -105 -14 -83 135 8 55 15 106 15
113 0 9 46 12 195 12 179 0 195 -1 195 -17z m874 -3 c3 -11 9 -29 12 -40 5
-19 1 -20 -124 -20 l-130 0 21 40 22 40 97 0 c88 0 97 -2 102 -20z"/>
</g>
</svg>
