<svg width="273" height="27" viewBox="0 0 273 27" xmlns="http://www.w3.org/2000/svg" xmlns:sketch="http://www.bohemiancoding.com/sketch/ns"><title>Logo</title><desc>Created with Sketch.</desc><g sketch:type="MSShapeGroup" fill="none"><path d="M4.5 13h264.189" stroke="#fff" stroke-width="8" stroke-linecap="square"/><path d="M12.796 25.856c.036.288.252.504.54.504h.504c.324 0 .504-.18.612-.396l7.992-15.588h.144l3.672 15.588c.036.216.216.396.504.396h.54c.252 0 .54-.216.648-.504l9.504-24.192c.216-.504 0-.864-.468-.864h-3.42c-.252 0-.54.252-.648.504l-5.112 13.644h-.144l-2.916-14.112c-.036-.216-.216-.396-.504-.396h-.576c-.288 0-.504.18-.612.396l-7.272 14.112h-.144l-1.224-13.644c-.036-.252-.252-.504-.504-.504h-3.132c-.432 0-.756.36-.684.864l2.7 24.192zm37.632-.54c-.072.36.144.684.504.684h13.32c.36 0 .684-.324.72-.684l.396-2.952c.036-.36-.144-.684-.504-.684h-9.252l.9-6.3h7.632c.324 0 .648-.288.72-.684l.432-2.988c.036-.36-.216-.684-.54-.684h-7.632l.828-5.904h9.216c.36 0 .684-.324.72-.684l.432-2.952c.036-.36-.18-.684-.54-.684h-13.32c-.324 0-.648.324-.684.684l-3.348 23.832zm31.62 0c-.072.36.144.684.504.684h13.32c.36 0 .684-.324.72-.684l.396-2.952c.036-.36-.144-.684-.504-.684h-9.252l.9-6.3h7.632c.324 0 .648-.288.72-.684l.432-2.988c.036-.36-.216-.684-.54-.684h-7.632l.828-5.904h9.216c.36 0 .684-.324.72-.684l.432-2.952c.036-.36-.18-.684-.54-.684h-13.32c-.324 0-.648.324-.684.684l-3.348 23.832zm31.62-.18c-.036.468.216.864.684.864h3.384c.396 0 .828-.396.864-.864l1.548-10.98 6.408 11.124c.324.576.612.72 1.296.72h3.276c.612 0 .972-.648.72-1.116l-7.272-11.88 9.828-11.016c.468-.54.252-1.188-.36-1.188h-3.564c-.756 0-1.08.18-1.476.648l-8.46 9.936 1.368-9.72c.072-.468-.216-.864-.648-.864h-3.384c-.468 0-.828.396-.9.864l-3.312 23.472zm34.068.18c-.072.36.144.684.468.684h7.812c7.56 0 13.284-6.444 13.284-14.256 0-5.832-4.068-10.944-9.756-10.944h-7.776c-.324 0-.648.324-.684.684l-3.348 23.832zm5.184-3.708l2.304-16.452h3.384c3.456 0 5.688 2.988 5.688 6.912 0 5.4-3.636 9.54-8.028 9.54h-3.348zm28.74 4.392h3.312c.576 0 .972-.36 1.152-.72l2.088-3.996h8.964l.9 3.996c.108.54.396.72.936.72h3.132c.504 0 .828-.468.684-.936l-6.624-24.228c-.072-.216-.252-.396-.504-.396h-.324c-.288 0-.468.144-.612.396l-13.536 24.228c-.252.468-.072.936.432.936zm8.676-8.604l3.924-7.848h.072l1.692 7.848h-5.688zm26.004 8.604h13.968c.36 0 .684-.324.72-.684l.396-2.988c.036-.36-.144-.684-.504-.684h-7.704v-.144l11.736-19.548.072-.468c.036-.36-.216-.684-.54-.684h-13.644c-.324 0-.684.324-.72.684l-.432 2.988c-.036.36.216.684.54.684h7.632v.144l-11.952 19.368-.072.648c-.072.36.18.684.504.684zm31.692-.684c-.072.36.144.684.504.684h13.32c.36 0 .684-.324.72-.684l.396-2.952c.036-.36-.144-.684-.504-.684h-9.252l.9-6.3h7.632c.324 0 .648-.288.72-.684l.432-2.988c.036-.36-.216-.684-.54-.684h-7.632l.828-5.904h9.216c.36 0 .684-.324.72-.684l.432-2.952c.036-.36-.18-.684-.54-.684h-13.32c-.324 0-.648.324-.684.684l-3.348 23.832z" fill="#1F3D77"/></g></svg>