<?xml version="1.0" encoding="UTF-8" standalone="no"?>
<svg width="213px" height="36px" viewBox="0 0 213 36" version="1.1" xmlns="http://www.w3.org/2000/svg" xmlns:xlink="http://www.w3.org/1999/xlink">
    <!-- Generator: Sketch 3.7.2 (28276) - http://www.bohemiancoding.com/sketch -->
    <title>logo</title>
    <desc>Created with Sketch.</desc>
    <defs></defs>
    <g id="Welcome" stroke="none" stroke-width="1" fill="none" fill-rule="evenodd">
        <g id="Desktop-HD-Copy" transform="translate(-583.000000, -923.000000)">
            <g id="logo" transform="translate(585.000000, 917.000000)">
                <path d="M25.15,41.05 C25.05,41.55 25.35,42 25.8,42 L36,42 C46.25,42 54.45,33.05 54.45,22.2 C54.45,14.4 48.75,7 40.9,7 L30.75,7 C30.3,7 29.85,7.45 29.8,7.95 L25.15,41.05 Z M29.3,38.55 L33.25,10.4 L39.75,10.4 C46.1,10.4 50.25,15.4 50.25,22.3 C50.25,31.7 43.7,38.55 35.75,38.55 L29.3,38.55 Z M69.7388893,42 L71.8888893,42 C72.3888893,42 72.6888893,41.7 72.8388893,41.45 L77.0888893,33.2 L92.6888893,33.2 L94.6888893,41.45 C94.7388893,41.7 94.9888893,42 95.4388893,42 L97.5388893,42 C98.1888893,42 98.6388893,41.35 98.4888893,40.7 L89.5888893,7.05 C89.4888893,6.75 89.2388893,6.5 88.8888893,6.5 L88.4388893,6.5 C88.0388893,6.5 87.7388893,6.75 87.5888893,7.05 L69.1388893,40.7 C68.7888893,41.35 69.0388893,42 69.7388893,42 L69.7388893,42 Z M78.9388893,30.1 L87.4888893,13.7 L87.7888893,13.7 L91.7388893,30.1 L78.9388893,30.1 Z M115.027779,42 L133.727779,42 C134.227779,42 134.627779,41.55 134.727779,41.05 L134.977779,39.45 C135.077779,38.95 134.727779,38.5 134.227779,38.5 L119.827779,38.5 L140.177779,8.6 L140.277779,7.95 C140.377779,7.45 140.027779,7 139.577779,7 L121.277779,7 C120.827779,7 120.377779,7.45 120.277779,7.95 L120.027779,9.55 C119.927779,10.05 120.327779,10.5 120.777779,10.5 L134.627779,10.5 L114.427779,40.15 L114.327779,41.05 C114.227779,41.55 114.577779,42 115.027779,42 L115.027779,42 Z M156.216668,41.05 C156.116668,41.55 156.416668,42 156.916668,42 L174.716668,42 C175.216668,42 175.666668,41.55 175.716668,41.05 L175.916668,39.6 C176.016668,39.1 175.716668,38.65 175.216668,38.65 L160.366668,38.65 L162.166668,25.9 L174.816668,25.9 C175.266668,25.9 175.716668,25.5 175.766668,24.95 L175.966668,23.5 C176.066668,23 175.716668,22.55 175.266668,22.55 L162.616668,22.55 L164.366668,10.35 L179.166668,10.35 C179.666668,10.35 180.116668,9.9 180.166668,9.4 L180.366668,7.95 C180.466668,7.45 180.166668,7 179.666668,7 L161.816668,7 C161.366668,7 160.916668,7.45 160.866668,7.95 L156.216668,41.05 Z" id="DAZE" fill="#222222"></path>
                <path d="M0.5,24.5 L207.972885,24.5" id="Line" stroke="#50E3C2" stroke-width="5" stroke-linecap="square"></path>
            </g>
        </g>
    </g>
</svg>